<svg xmlns="http://www.w3.org/2000/svg" xmlns:xlink="http://www.w3.org/1999/xlink" x="0px" y="0px"
	 viewBox="0 0 223.72 28.36" style="enable-background:new 0 0 223.72 28.36;" xml:space="preserve">
<style type="text/css">
	.st0{fill:#00A651;}
</style>
<g>
	<path class="st0" d="M16.08,6.21c-0.88-2.96-2.38-5.32-6.7-5.32c-3.55,0-5.18,2.29-5.18,4.77c0,3.17,2.04,4.46,5.81,6.4
		c3.68,1.9,7.87,4,7.87,8.5c0,4.42-4.26,7.8-9.93,7.8c-2.66,0-5.32-0.69-6.85-1.2c-0.29-1.1-1.01-4.87-1.1-5.66l0.68-0.12
		c0.83,2.63,3.04,6.09,7.95,6.09c4.02,0,5.73-2.74,5.73-5.53c0-3.17-2.44-4.94-5.81-6.73c-3.65-1.95-7.56-3.96-7.56-8.19
		C0.99,3.07,4.7,0,10.2,0c2.93,0,4.78,0.5,5.83,0.66c0.19,1.47,0.44,3.46,0.77,5.42L16.08,6.21z"/>
	<path class="st0" d="M42.93,21.39c-0.25,1.23-1.24,4.91-1.75,6.34H19.81v-0.51c4.27-0.5,4.51-0.84,4.51-4.28V5.26
		c0-3.45-0.42-3.73-4.16-4.16V0.58h11.65V1.1c-3.56,0.55-3.89,0.72-3.89,4.16v18.3c0,2.94,0.59,3.07,3.75,3.07
		c0.9,0,2.38-0.04,3.19-0.04c2.81,0,3.93-0.06,5.18-1.61c0.83-1.03,1.54-2.17,2.22-3.77L42.93,21.39z"/>
	<path class="st0" d="M43.45,27.73v-0.51c3.78-0.58,4.15-0.95,4.15-4.22V5.35c0-3.5-0.34-3.72-4.15-4.25V0.58H55.4V1.1
		c-3.86,0.47-4.2,0.75-4.2,4.25V23c0,3.24,0.33,3.6,4.2,4.22v0.51H43.45z"/>
	<path class="st0" d="M83.52,27.73v-0.51c3.77-0.58,3.87-0.95,3.92-5.07l0.14-18.49C83.5,11.25,75.74,25.9,74.93,27.73h-0.5
		c-0.55-1.34-5.9-12.54-11.31-23.59c-0.63,15.67-0.59,17.98-0.59,19.67c0.01,2.3,0.71,2.99,4.36,3.42v0.51H56.41v-0.51
		c3.32-0.38,3.94-1.13,4.19-3.37c0.2-1.73,0.34-4.1,1.27-19.55c0.09-1.7-0.12-2.78-4.42-3.19V0.58h7.6l11.03,21.69L88.05,0.58h7.48
		V1.1c-4.16,0.55-4.5,0.96-4.49,4.81l0.1,16.24c0.05,4.21,0.46,4.52,4.39,5.07v0.51H83.52z"/>
	<path class="st0" d="M125.27,21.4c-0.44,1.41-1.81,4.94-2.53,6c-1.24,0.29-4.72,0.96-7.98,0.96c-11.86,0-17.31-6.88-17.31-14.11
		C97.45,5.55,104.68,0,115.56,0c3.84,0,6.81,0.71,8.32,0.87c0.23,1.94,0.43,4.25,0.72,5.97l-0.78,0.13
		c-0.87-2.58-1.63-4.4-4.32-5.29c-1.52-0.5-3.58-0.71-5.37-0.71c-8.4,0-12.36,5.91-12.36,12.53c0,8.29,4.76,13.9,13.2,13.9
		c5.31,0,7.5-2.65,9.52-6.21L125.27,21.4z"/>
	<path class="st0" d="M142.75,0c8.1,0,15.2,5.65,15.2,13.79c0,8.77-6.97,14.57-15.57,14.57c-8.51,0-15.27-6.03-15.27-13.8
		C127.11,7.03,133.07,0,142.75,0z M141.83,0.93c-5.5,0-10.39,4.32-10.39,12.44c0,8.16,4.8,14.02,11.97,14.02
		c5.6,0,10.19-4.26,10.19-12.32C153.62,6.07,148.67,0.93,141.83,0.93z"/>
	<path class="st0" d="M177.12,0c8.1,0,15.2,5.65,15.2,13.79c0,8.77-6.97,14.57-15.57,14.57c-8.51,0-15.27-6.03-15.27-13.8
		C161.48,7.03,167.43,0,177.12,0z M176.2,0.93c-5.5,0-10.39,4.32-10.39,12.44c0,8.16,4.8,14.02,11.97,14.02
		c5.6,0,10.19-4.26,10.19-12.32C187.98,6.07,183.04,0.93,176.2,0.93z"/>
	<path class="st0" d="M194.12,0.58h11.94V1.1c-3.95,0.62-4.2,0.87-4.2,4.74v7.6c0.71-0.24,1.7-0.83,2.74-1.69
		c2.65-2.13,6.85-5.92,9.03-7.99c1.67-1.66,1.25-2.11-0.82-2.5l-1.14-0.17V0.58h10.48V1.1c-3.52,0.39-4.39,0.88-7.49,3.42
		c-1.9,1.61-5.79,4.92-9.28,7.89c3.8,3.81,9.34,9.25,11.74,11.38c3.03,2.71,3.54,3.05,6.6,3.42v0.51h-7.51
		c-4.21-4.03-8.82-8.64-12.56-12.35c-0.92-0.94-1.4-1.25-1.79-1.42v8.35c0,4.18,0.38,4.19,4.2,4.9v0.51h-11.94v-0.51
		c3.85-0.54,4.15-0.72,4.15-4.9V5.92c0-4.06-0.3-4.31-4.15-4.82V0.58z"/>
</g>
</svg>
